<?xml version="1.0" standalone="no"?>
<!DOCTYPE svg PUBLIC "-//W3C//DTD SVG 20010904//EN"
 "http://www.w3.org/TR/2001/REC-SVG-20010904/DTD/svg10.dtd">
<svg version="1.0" xmlns="http://www.w3.org/2000/svg"
 width="64.000000pt" height="64.000000pt" viewBox="0 0 64.000000 64.000000"
 preserveAspectRatio="xMidYMid meet">

<g transform="translate(0.000000,64.000000) scale(0.100000,-0.100000)"
fill="#000000" stroke="none">
<path d="M390 580 c-25 -25 -26 -54 -2 -77 16 -17 16 -18 -12 -28 -34 -11
-136 -146 -136 -179 0 -11 -12 -32 -26 -48 l-27 -27 -29 20 c-40 29 -66 19
-111 -39 -42 -56 -45 -74 -18 -101 11 -11 21 -27 23 -38 2 -12 12 -18 28 -18
19 0 26 6 28 25 5 28 102 150 102 126 0 -9 5 -16 11 -16 6 0 9 10 8 23 -4 27
21 67 41 67 8 0 30 17 48 37 l33 38 -4 -54 c-3 -35 -10 -59 -21 -66 -9 -7 -16
-20 -16 -30 0 -10 -16 -37 -35 -61 -19 -23 -35 -49 -35 -56 0 -19 20 -38 40
-38 17 0 108 83 126 114 9 18 15 13 58 -48 51 -70 76 -81 100 -43 9 14 6 26
-13 60 -14 23 -24 55 -23 70 2 20 -2 27 -10 24 -19 -6 -48 43 -48 80 l0 33 34
-17 c19 -9 41 -13 50 -10 25 10 19 45 -11 64 -39 24 -122 113 -106 113 20 0
53 37 53 60 0 11 -9 29 -20 40 -11 11 -29 20 -40 20 -11 0 -29 -9 -40 -20z
m70 -15 c26 -32 -13 -81 -47 -59 -23 14 -28 41 -13 59 16 19 44 19 60 0z m-26
-121 c12 -11 16 -36 16 -96 0 -78 2 -84 51 -175 39 -72 49 -97 40 -106 -13
-13 -13 -13 -108 117 -53 73 -58 84 -61 143 -3 34 -7 63 -11 63 -4 0 -24 -23
-45 -51 -53 -69 -70 -49 -20 22 56 80 75 99 100 99 12 0 30 -7 38 -16z m96
-94 c35 -26 16 -38 -25 -15 -25 13 -35 25 -35 42 0 21 1 22 18 7 9 -8 28 -23
42 -34z m-410 -114 c0 -2 -16 -23 -35 -46 -50 -60 -32 -66 19 -7 37 41 45 46
55 33 14 -17 10 -24 -41 -84 -28 -33 -56 -40 -76 -20 -19 19 -15 31 24 81 31
40 54 58 54 43z m260 -75 c-21 -42 -86 -104 -103 -98 -23 7 -16 27 26 75 24
27 47 62 51 78 l8 29 19 -23 c18 -23 18 -24 -1 -61z m-290 -91 c0 -5 -4 -10
-10 -10 -5 0 -10 5 -10 10 0 6 5 10 10 10 6 0 10 -4 10 -10z"/>
<path d="M260 200 c0 -11 5 -20 10 -20 6 0 10 9 10 20 0 11 -4 20 -10 20 -5 0
-10 -9 -10 -20z"/>
<path d="M560 200 c0 -11 5 -20 10 -20 6 0 10 9 10 20 0 11 -4 20 -10 20 -5 0
-10 -9 -10 -20z"/>
<path d="M610 200 c0 -11 5 -20 10 -20 6 0 10 9 10 20 0 11 -4 20 -10 20 -5 0
-10 -9 -10 -20z"/>
</g>
</svg>
